<svg width="20" height="21" viewBox="0 0 20 21" fill="none" xmlns="http://www.w3.org/2000/svg">
<g clip-path="url(#clip0_4_3297)">
<path d="M10 2.46753C12.6719 2.46753 12.9883 2.47925 14.0391 2.52612C15.0156 2.56909 15.543 2.73315 15.8945 2.86987C16.3594 3.04956 16.6953 3.26831 17.043 3.61597C17.3945 3.96753 17.6094 4.29956 17.7891 4.7644C17.9258 5.11597 18.0898 5.64722 18.1328 6.61987C18.1797 7.67456 18.1914 7.99097 18.1914 10.6589C18.1914 13.3308 18.1797 13.6472 18.1328 14.698C18.0898 15.6746 17.9258 16.2019 17.7891 16.5535C17.6094 17.0183 17.3906 17.3542 17.043 17.7019C16.6914 18.0535 16.3594 18.2683 15.8945 18.448C15.543 18.5847 15.0117 18.7488 14.0391 18.7917C12.9844 18.8386 12.668 18.8503 10 18.8503C7.32813 18.8503 7.01172 18.8386 5.96094 18.7917C4.98438 18.7488 4.45703 18.5847 4.10547 18.448C3.64063 18.2683 3.30469 18.0496 2.95703 17.7019C2.60547 17.3503 2.39063 17.0183 2.21094 16.5535C2.07422 16.2019 1.91016 15.6707 1.86719 14.698C1.82031 13.6433 1.80859 13.3269 1.80859 10.6589C1.80859 7.98706 1.82031 7.67065 1.86719 6.61987C1.91016 5.64331 2.07422 5.11597 2.21094 4.7644C2.39063 4.29956 2.60938 3.96362 2.95703 3.61597C3.30859 3.2644 3.64063 3.04956 4.10547 2.86987C4.45703 2.73315 4.98828 2.56909 5.96094 2.52612C7.01172 2.47925 7.32813 2.46753 10 2.46753ZM10 0.666748C7.28516 0.666748 6.94531 0.678467 5.87891 0.725342C4.81641 0.772217 4.08594 0.944092 3.45313 1.19019C2.79297 1.448 2.23438 1.78784 1.67969 2.34644C1.12109 2.90112 0.78125 3.45972 0.523438 4.11597C0.277344 4.75269 0.105469 5.47925 0.0585938 6.54175C0.0117188 7.61206 0 7.9519 0 10.6667C0 13.3816 0.0117188 13.7214 0.0585938 14.7878C0.105469 15.8503 0.277344 16.5808 0.523438 17.2136C0.78125 17.8738 1.12109 18.4324 1.67969 18.9871C2.23438 19.5417 2.79297 19.8855 3.44922 20.1394C4.08594 20.3855 4.8125 20.5574 5.875 20.6042C6.94141 20.6511 7.28125 20.6628 9.99609 20.6628C12.7109 20.6628 13.0508 20.6511 14.1172 20.6042C15.1797 20.5574 15.9102 20.3855 16.543 20.1394C17.1992 19.8855 17.7578 19.5417 18.3125 18.9871C18.8672 18.4324 19.2109 17.8738 19.4648 17.2175C19.7109 16.5808 19.8828 15.8542 19.9297 14.7917C19.9766 13.7253 19.9883 13.3855 19.9883 10.6707C19.9883 7.95581 19.9766 7.61597 19.9297 6.54956C19.8828 5.48706 19.7109 4.75659 19.4648 4.12378C19.2188 3.45972 18.8789 2.90112 18.3203 2.34644C17.7656 1.79175 17.207 1.448 16.5508 1.19409C15.9141 0.947998 15.1875 0.776123 14.125 0.729248C13.0547 0.678467 12.7148 0.666748 10 0.666748Z" fill="#D1D5DB"/>
<path d="M10 5.53003C7.16406 5.53003 4.86328 7.83081 4.86328 10.6667C4.86328 13.5027 7.16406 15.8035 10 15.8035C12.8359 15.8035 15.1367 13.5027 15.1367 10.6667C15.1367 7.83081 12.8359 5.53003 10 5.53003ZM10 13.9988C8.16016 13.9988 6.66797 12.5066 6.66797 10.6667C6.66797 8.8269 8.16016 7.33472 10 7.33472C11.8398 7.33472 13.332 8.8269 13.332 10.6667C13.332 12.5066 11.8398 13.9988 10 13.9988Z" fill="#D1D5DB"/>
<path d="M16.5391 5.32691C16.5391 5.99097 16 6.52613 15.3398 6.52613C14.6758 6.52613 14.1406 5.98706 14.1406 5.32691C14.1406 4.66284 14.6797 4.12769 15.3398 4.12769C16 4.12769 16.5391 4.66675 16.5391 5.32691Z" fill="#D1D5DB"/>
</g>
<defs>
<clipPath id="clip0_4_3297">
<rect width="20" height="20" fill="white" transform="translate(0 0.666748)"/>
</clipPath>
</defs>
</svg>
